name ./resultDataOpenSim/trcMotMarkerGrf/sub10/grf-13-03.mot
datacolumns 19
datarows 27
range 1.45600000 1.56000000
endheader

                time	     ground_force_vx	     ground_force_vy	     ground_force_vz	     ground_force_px	     ground_force_py	     ground_force_pz	   l_ground_force_vx	   l_ground_force_vy	   l_ground_force_vz	   l_ground_force_px	   l_ground_force_py	   l_ground_force_pz	     ground_torque_x	     ground_torque_y	     ground_torque_z	   l_ground_torque_x	   l_ground_torque_y	   l_ground_torque_z	
          1.45600000	         10.79413013	        443.21615536	        -14.63520853	          0.77474896	          0.00000000	          0.04681769	          0.00000000	          0.00000000	          0.00000000	          0.00000000	          0.00000000	          0.00000000	          0.00000000	          4.89854014	          0.00000000	          0.00000000	          0.00000000	          0.00000000	
          1.46000000	         12.65937767	        444.35655717	        -16.08852779	          0.77529074	          0.00000000	          0.04669742	          0.00000000	          0.00000000	          0.00000000	          0.00000000	          0.00000000	          0.00000000	          0.00000000	          4.93654935	          0.00000000	          0.00000000	          0.00000000	          0.00000000	
          1.46400000	         14.70273364	        446.15786448	        -18.26404575	          0.77579299	          0.00000000	          0.04661460	          0.00000000	          0.00000000	          0.00000000	          0.00000000	          0.00000000	          0.00000000	          0.00000000	          5.00434221	          0.00000000	          0.00000000	          0.00000000	          0.00000000	
          1.46800000	         16.97301598	        448.68061357	        -20.94762614	          0.77624618	          0.00000000	          0.04655413	          0.00000000	          0.00000000	          0.00000000	          0.00000000	          0.00000000	          0.00000000	          0.00000000	          5.08305645	          0.00000000	          0.00000000	          0.00000000	          0.00000000	
          1.47200000	         19.46974759	        451.97434014	        -23.86891798	          0.77665038	          0.00000000	          0.04649807	          0.00000000	          0.00000000	          0.00000000	          0.00000000	          0.00000000	          0.00000000	          0.00000000	          5.15027242	          0.00000000	          0.00000000	          0.00000000	          0.00000000	
          1.47600000	         22.14020704	        456.06874515	        -26.74849846	          0.77701786	          0.00000000	          0.04642990	          0.00000000	          0.00000000	          0.00000000	          0.00000000	          0.00000000	          0.00000000	          0.00000000	          5.18552554	          0.00000000	          0.00000000	          0.00000000	          0.00000000	
          1.48000000	         24.88344675	        460.97248110	        -29.34034912	          0.77736012	          0.00000000	          0.04633549	          0.00000000	          0.00000000	          0.00000000	          0.00000000	          0.00000000	          0.00000000	          0.00000000	          5.17539234	          0.00000000	          0.00000000	          0.00000000	          0.00000000	
          1.48400000	         27.56738916	        466.68464576	        -31.46209982	          0.77768964	          0.00000000	          0.04619873	          0.00000000	          0.00000000	          0.00000000	          0.00000000	          0.00000000	          0.00000000	          0.00000000	          5.11685118	          0.00000000	          0.00000000	          0.00000000	          0.00000000	
          1.48800000	         30.06147571	        473.20125478	        -33.01189352	          0.77803583	          0.00000000	          0.04600310	          0.00000000	          0.00000000	          0.00000000	          0.00000000	          0.00000000	          0.00000000	          0.00000000	          5.01814673	          0.00000000	          0.00000000	          0.00000000	          0.00000000	
          1.49200000	         32.27741563	        480.50408928	        -33.97568430	          0.77842341	          0.00000000	          0.04573647	          0.00000000	          0.00000000	          0.00000000	          0.00000000	          0.00000000	          0.00000000	          0.00000000	          4.89708843	          0.00000000	          0.00000000	          0.00000000	          0.00000000	
          1.49600000	         34.20442402	        488.54298138	        -34.42587361	          0.77885473	          0.00000000	          0.04539389	          0.00000000	          0.00000000	          0.00000000	          0.00000000	          0.00000000	          0.00000000	          0.00000000	          4.77732340	          0.00000000	          0.00000000	          0.00000000	          0.00000000	
          1.50000000	         35.92542796	        497.23703438	        -34.50600990	          0.77930907	          0.00000000	          0.04497997	          0.00000000	          0.00000000	          0.00000000	          0.00000000	          0.00000000	          0.00000000	          0.00000000	          4.68353863	          0.00000000	          0.00000000	          0.00000000	          0.00000000	
          1.50400000	         37.60754116	        506.49948191	        -34.39751304	          0.77974483	          0.00000000	          0.04451257	          0.00000000	          0.00000000	          0.00000000	          0.00000000	          0.00000000	          0.00000000	          0.00000000	          4.63673984	          0.00000000	          0.00000000	          0.00000000	          0.00000000	
          1.50800000	         39.46807712	        516.25724517	        -34.27523354	          0.78012546	          0.00000000	          0.04401996	          0.00000000	          0.00000000	          0.00000000	          0.00000000	          0.00000000	          0.00000000	          0.00000000	          4.65068024	          0.00000000	          0.00000000	          0.00000000	          0.00000000	
          1.51200000	         41.72427898	        526.45006352	        -34.27158352	          0.78043300	          0.00000000	          0.04351300	          0.00000000	          0.00000000	          0.00000000	          0.00000000	          0.00000000	          0.00000000	          0.00000000	          4.73009212	          0.00000000	          0.00000000	          0.00000000	          0.00000000	
          1.51600000	         44.54055841	        537.02378025	        -34.46098586	          0.78065068	          0.00000000	          0.04299728	          0.00000000	          0.00000000	          0.00000000	          0.00000000	          0.00000000	          0.00000000	          0.00000000	          4.87075875	          0.00000000	          0.00000000	          0.00000000	          0.00000000	
          1.52000000	         47.98966557	        547.93350219	        -34.85792835	          0.78076838	          0.00000000	          0.04248467	          0.00000000	          0.00000000	          0.00000000	          0.00000000	          0.00000000	          0.00000000	          0.00000000	          5.06102454	          0.00000000	          0.00000000	          0.00000000	          0.00000000	
          1.52400000	         52.04054029	        559.15385456	        -35.42568310	          0.78079747	          0.00000000	          0.04198501	          0.00000000	          0.00000000	          0.00000000	          0.00000000	          0.00000000	          0.00000000	          0.00000000	          5.28421470	          0.00000000	          0.00000000	          0.00000000	          0.00000000	
          1.52800000	         56.57360774	        570.67400310	        -36.09842531	          0.78076625	          0.00000000	          0.04150495	          0.00000000	          0.00000000	          0.00000000	          0.00000000	          0.00000000	          0.00000000	          0.00000000	          5.52146275	          0.00000000	          0.00000000	          0.00000000	          0.00000000	
          1.53200000	         61.41277916	        582.47762054	        -36.80825013	          0.78070672	          0.00000000	          0.04104920	          0.00000000	          0.00000000	          0.00000000	          0.00000000	          0.00000000	          0.00000000	          0.00000000	          5.75447790	          0.00000000	          0.00000000	          0.00000000	          0.00000000	
          1.53600000	         66.36104408	        594.53610220	        -37.50549368	          0.78064000	          0.00000000	          0.04061896	          0.00000000	          0.00000000	          0.00000000	          0.00000000	          0.00000000	          0.00000000	          0.00000000	          5.96784876	          0.00000000	          0.00000000	          0.00000000	          0.00000000	
          1.54000000	         71.23518193	        606.81692605	        -38.16996331	          0.78058776	          0.00000000	          0.04021513	          0.00000000	          0.00000000	          0.00000000	          0.00000000	          0.00000000	          0.00000000	          0.00000000	          6.15063756	          0.00000000	          0.00000000	          0.00000000	          0.00000000	
          1.54400000	         75.90026414	        619.28656593	        -38.81495832	          0.78057615	          0.00000000	          0.03984178	          0.00000000	          0.00000000	          0.00000000	          0.00000000	          0.00000000	          0.00000000	          0.00000000	          6.29720476	          0.00000000	          0.00000000	          0.00000000	          0.00000000	
          1.54800000	         80.29586522	        631.90139495	        -39.48565795	          0.78062037	          0.00000000	          0.03950215	          0.00000000	          0.00000000	          0.00000000	          0.00000000	          0.00000000	          0.00000000	          0.00000000	          6.40729764	          0.00000000	          0.00000000	          0.00000000	          0.00000000	
          1.55200000	         84.44375938	        644.59110247	        -40.25286376	          0.78071813	          0.00000000	          0.03919707	          0.00000000	          0.00000000	          0.00000000	          0.00000000	          0.00000000	          0.00000000	          0.00000000	          6.48542831	          0.00000000	          0.00000000	          0.00000000	          0.00000000	
          1.55600000	         88.43682565	        657.24253288	        -41.20054752	          0.78085738	          0.00000000	          0.03892688	          0.00000000	          0.00000000	          0.00000000	          0.00000000	          0.00000000	          0.00000000	          0.00000000	          6.53956090	          0.00000000	          0.00000000	          0.00000000	          0.00000000	
          1.56000000	         92.41511474	        669.69631138	        -42.40697257	          0.78102370	          0.00000000	          0.03869137	          0.00000000	          0.00000000	          0.00000000	          0.00000000	          0.00000000	          0.00000000	          0.00000000	          6.57924677	          0.00000000	          0.00000000	          0.00000000	          0.00000000	
